# xmcd
#
# Track frame offsets:
#	150
#	18960
#	32945
#	51066
#	76557
#	93700
#	119400
#
# Disc length: 1878 seconds
#
# Revision: 1
# Processed by: cddbd v1.5.2PL0 Copyright (c) Steve Scherf et al.
# Submitted via: audiograbber 1.83.01
#
DISCID=4d075407
DTITLE=Trevor Finlay - Bootleg
DYEAR=2010
DGENRE=Blues 
TTITLE0=Three-Chord RocknRoll
TTITLE1=Burning It In
TTITLE2=Last Minute Romance
TTITLE3=What I Was Dying For
TTITLE4=Send My Mail To Nashville
TTITLE5=Ain't Gonna Make It To The Dance
TTITLE6=That's Gonna Leave A Mark
EXTD=
EXTT0=
EXTT1=
EXTT2=
EXTT3=
EXTT4=
EXTT5=
EXTT6=
PLAYORDER=
